<svg viewBox="0 0 187 48" xmlns="http://www.w3.org/2000/svg">
<path d="M61.4768 45.5037C60.5732 45.5037 59.7557 45.3044 59.0242 44.9057C58.3013 44.4983 57.7333 43.9435 57.3203 43.2415C56.9072 42.5307 56.7007 41.7333 56.7007 40.8492C56.7007 39.965 56.9072 39.1719 57.3203 38.4699C57.7333 37.7591 58.3056 37.2044 59.0371 36.8057C59.7686 36.3983 60.5861 36.1946 61.4897 36.1946C62.1953 36.1946 62.8407 36.3159 63.4259 36.5586C64.0111 36.7926 64.5102 37.1437 64.9233 37.6118L64.0842 38.4309C63.4044 37.7114 62.5568 37.3517 61.5413 37.3517C60.8701 37.3517 60.2634 37.5034 59.7212 37.8068C59.1791 38.1101 58.7531 38.5305 58.4433 39.0679C58.1421 39.5967 57.9915 40.1904 57.9915 40.8492C57.9915 41.5079 58.1421 42.106 58.4433 42.6434C58.7531 43.1721 59.1791 43.5882 59.7212 43.8915C60.2634 44.1949 60.8701 44.3466 61.5413 44.3466C62.5482 44.3466 63.3958 43.9825 64.0842 43.2545L64.9233 44.0736C64.5102 44.5416 64.0068 44.897 63.413 45.1397C62.8278 45.3824 62.1824 45.5037 61.4768 45.5037Z" fill="black"/>
<path d="M69.2243 45.4777C68.5444 45.4777 67.9334 45.326 67.3913 45.0227C66.8492 44.7193 66.4232 44.3033 66.1134 43.7745C65.8122 43.2371 65.6616 42.6304 65.6616 41.9543C65.6616 41.2782 65.8122 40.6758 66.1134 40.1471C66.4232 39.6097 66.8492 39.1936 67.3913 38.8989C67.9334 38.5955 68.5444 38.4439 69.2243 38.4439C69.9041 38.4439 70.5108 38.5955 71.0444 38.8989C71.5865 39.1936 72.0082 39.6097 72.3094 40.1471C72.6192 40.6758 72.7741 41.2782 72.7741 41.9543C72.7741 42.6304 72.6192 43.2371 72.3094 43.7745C72.0082 44.3033 71.5865 44.7193 71.0444 45.0227C70.5108 45.326 69.9041 45.4777 69.2243 45.4777ZM69.2243 44.3856C69.6632 44.3856 70.0547 44.2859 70.3989 44.0866C70.7518 43.8785 71.0271 43.5925 71.2251 43.2285C71.423 42.8557 71.522 42.431 71.522 41.9543C71.522 41.4776 71.423 41.0572 71.2251 40.6931C71.0271 40.3204 70.7518 40.0344 70.3989 39.835C70.0547 39.6357 69.6632 39.536 69.2243 39.536C68.7854 39.536 68.3895 39.6357 68.0367 39.835C67.6925 40.0344 67.4171 40.3204 67.2106 40.6931C67.0127 41.0572 66.9137 41.4776 66.9137 41.9543C66.9137 42.431 67.0127 42.8557 67.2106 43.2285C67.4171 43.5925 67.6925 43.8785 68.0367 44.0866C68.3895 44.2859 68.7854 44.3856 69.2243 44.3856Z" fill="black"/>
<path d="M78.1409 38.4439C79.0101 38.4439 79.6985 38.6996 80.2062 39.211C80.7226 39.7137 80.9807 40.4548 80.9807 41.4342V45.3997H79.7415V41.5772C79.7415 40.9098 79.5823 40.4071 79.2639 40.0691C78.9455 39.731 78.4894 39.562 77.8957 39.562C77.2244 39.562 76.6952 39.7614 76.3079 40.1601C75.9207 40.5501 75.7271 41.1135 75.7271 41.8503V45.3997H74.4879V38.5089H75.6754V39.549C75.925 39.1936 76.2606 38.9206 76.6823 38.7299C77.1125 38.5392 77.5988 38.4439 78.1409 38.4439Z" fill="black"/>
<path d="M85.2362 45.4777C84.6768 45.4777 84.1389 45.4041 83.6226 45.2567C83.1063 45.1007 82.7018 44.9057 82.4092 44.6716L82.9256 43.6835C83.2268 43.9002 83.5925 44.0736 84.0228 44.2036C84.4531 44.3336 84.8876 44.3986 85.3265 44.3986C86.4108 44.3986 86.953 44.0866 86.953 43.4625C86.953 43.2545 86.8798 43.0898 86.7335 42.9684C86.5872 42.8471 86.4022 42.7604 86.1785 42.7084C85.9633 42.6477 85.6535 42.5827 85.2491 42.5134C84.6983 42.4267 84.2465 42.327 83.8937 42.2143C83.5495 42.1016 83.2526 41.911 83.003 41.6423C82.7535 41.3736 82.6287 40.9965 82.6287 40.5111C82.6287 39.887 82.8868 39.3886 83.4032 39.0159C83.9195 38.6345 84.6123 38.4439 85.4814 38.4439C85.9375 38.4439 86.3936 38.5002 86.8497 38.6129C87.3058 38.7256 87.6801 38.8772 87.9727 39.0679L87.4435 40.0561C86.8841 39.692 86.2258 39.51 85.4685 39.51C84.9436 39.51 84.5434 39.5967 84.268 39.77C83.9927 39.9434 83.855 40.1731 83.855 40.4591C83.855 40.6845 83.9324 40.8622 84.0873 40.9922C84.2422 41.1222 84.4315 41.2175 84.6553 41.2782C84.8876 41.3389 85.2103 41.4082 85.6234 41.4862C86.1742 41.5816 86.6173 41.6856 86.953 41.7983C87.2972 41.9023 87.5898 42.0843 87.8307 42.3443C88.0717 42.6044 88.1922 42.9684 88.1922 43.4365C88.1922 44.0606 87.9254 44.559 87.3918 44.9317C86.8669 45.2957 86.1483 45.4777 85.2362 45.4777Z" fill="black"/>
<path d="M96.1176 38.5089V45.3997H94.9429V44.3596C94.6934 44.715 94.362 44.9923 93.949 45.1917C93.5445 45.3824 93.1013 45.4777 92.6194 45.4777C91.7072 45.4777 90.9887 45.2264 90.4637 44.7236C89.9388 44.2122 89.6763 43.4625 89.6763 42.4744V38.5089H90.9155V42.3313C90.9155 42.9988 91.0747 43.5058 91.3931 43.8525C91.7115 44.1906 92.1676 44.3596 92.7614 44.3596C93.4154 44.3596 93.9318 44.1602 94.3104 43.7615C94.6891 43.3628 94.8784 42.7994 94.8784 42.0713V38.5089H96.1176Z" fill="black"/>
<path d="M100.555 45.4777C99.8923 45.4777 99.3803 45.2957 99.0188 44.9317C98.6574 44.559 98.4767 44.0389 98.4767 43.3715V35.7525H99.7159V43.2675C99.7159 43.6402 99.8019 43.9262 99.974 44.1256C100.155 44.3249 100.422 44.4246 100.774 44.4246C100.989 44.4246 101.192 44.3813 101.381 44.2946L101.446 45.3217C101.162 45.4257 100.865 45.4777 100.555 45.4777Z" fill="black"/>
<path d="M106.225 44.9967C106.045 45.1527 105.821 45.274 105.554 45.3607C105.287 45.4387 105.012 45.4777 104.728 45.4777C104.04 45.4777 103.506 45.2914 103.127 44.9187C102.749 44.546 102.559 44.0129 102.559 43.3195V37.0007H103.799V38.5089H105.761V39.536H103.799V43.2675C103.799 43.6402 103.889 43.9262 104.07 44.1256C104.259 44.3249 104.526 44.4246 104.87 44.4246C105.249 44.4246 105.571 44.3163 105.838 44.0996L106.225 44.9967Z" fill="black"/>
<path d="M107.717 38.5089H108.956V45.3997H107.717V38.5089ZM108.336 37.1827C108.095 37.1827 107.893 37.1047 107.73 36.9487C107.575 36.7926 107.497 36.602 107.497 36.3766C107.497 36.1512 107.575 35.9605 107.73 35.8045C107.893 35.6398 108.095 35.5575 108.336 35.5575C108.577 35.5575 108.775 35.6355 108.93 35.7915C109.094 35.9389 109.175 36.1252 109.175 36.3506C109.175 36.5846 109.094 36.784 108.93 36.9487C108.775 37.1047 108.577 37.1827 108.336 37.1827Z" fill="black"/>
<path d="M114.975 38.4439C115.844 38.4439 116.533 38.6996 117.04 39.211C117.557 39.7137 117.815 40.4548 117.815 41.4342V45.3997H116.576V41.5772C116.576 40.9098 116.416 40.4071 116.098 40.0691C115.78 39.731 115.324 39.562 114.73 39.562C114.059 39.562 113.529 39.7614 113.142 40.1601C112.755 40.5501 112.561 41.1135 112.561 41.8503V45.3997H111.322V38.5089H112.51V39.549C112.759 39.1936 113.095 38.9206 113.516 38.7299C113.947 38.5392 114.433 38.4439 114.975 38.4439Z" fill="black"/>
<path d="M126.691 38.5089V44.4636C126.691 45.6684 126.394 46.5569 125.8 47.1289C125.206 47.7097 124.32 48 123.141 48C122.495 48 121.88 47.909 121.295 47.727C120.71 47.5537 120.236 47.3023 119.875 46.9729L120.469 46.0108C120.787 46.2882 121.179 46.5049 121.643 46.6609C122.117 46.8256 122.603 46.9079 123.102 46.9079C123.902 46.9079 124.492 46.7172 124.87 46.3358C125.258 45.9545 125.451 45.3737 125.451 44.5936V44.0476C125.159 44.4029 124.797 44.6716 124.367 44.8537C123.945 45.027 123.485 45.1137 122.986 45.1137C122.332 45.1137 121.738 44.975 121.205 44.6976C120.68 44.4116 120.266 44.0172 119.965 43.5145C119.664 43.0031 119.514 42.4224 119.514 41.7723C119.514 41.1222 119.664 40.5458 119.965 40.0431C120.266 39.5317 120.68 39.1373 121.205 38.8599C121.738 38.5825 122.332 38.4439 122.986 38.4439C123.502 38.4439 123.98 38.5392 124.419 38.7299C124.866 38.9206 125.232 39.2023 125.516 39.575V38.5089H126.691ZM123.128 44.0216C123.575 44.0216 123.975 43.9262 124.328 43.7355C124.69 43.5448 124.969 43.2805 125.167 42.9424C125.374 42.5957 125.477 42.2057 125.477 41.7723C125.477 41.1049 125.258 40.5675 124.819 40.1601C124.38 39.744 123.816 39.536 123.128 39.536C122.431 39.536 121.863 39.744 121.424 40.1601C120.985 40.5675 120.766 41.1049 120.766 41.7723C120.766 42.2057 120.865 42.5957 121.063 42.9424C121.269 43.2805 121.549 43.5448 121.902 43.7355C122.263 43.9262 122.672 44.0216 123.128 44.0216Z" fill="black"/>
<path d="M136.501 36.1946C137.705 36.1946 138.656 36.55 139.353 37.2607C140.05 37.9628 140.399 38.9726 140.399 40.2901V45.3997H139.108V42.8904H133.893V45.3997H132.628V40.2901C132.628 38.9726 132.977 37.9628 133.674 37.2607C134.371 36.55 135.313 36.1946 136.501 36.1946ZM139.108 41.7593V40.1731C139.108 39.2456 138.876 38.5435 138.411 38.0668C137.955 37.5901 137.318 37.3517 136.501 37.3517C135.683 37.3517 135.042 37.5901 134.577 38.0668C134.121 38.5435 133.893 39.2456 133.893 40.1731V41.7593H139.108Z" fill="black"/>
<path d="M149.394 38.5089V44.4636C149.394 45.6684 149.097 46.5569 148.503 47.1289C147.909 47.7097 147.023 48 145.844 48C145.198 48 144.583 47.909 143.998 47.727C143.413 47.5537 142.939 47.3023 142.578 46.9729L143.172 46.0108C143.49 46.2882 143.882 46.5049 144.346 46.6609C144.82 46.8256 145.306 46.9079 145.805 46.9079C146.605 46.9079 147.195 46.7172 147.573 46.3358C147.961 45.9545 148.154 45.3737 148.154 44.5936V44.0476C147.862 44.4029 147.5 44.6716 147.07 44.8537C146.648 45.027 146.188 45.1137 145.689 45.1137C145.035 45.1137 144.441 44.975 143.908 44.6976C143.383 44.4116 142.97 44.0172 142.668 43.5145C142.367 43.0031 142.217 42.4224 142.217 41.7723C142.217 41.1222 142.367 40.5458 142.668 40.0431C142.97 39.5317 143.383 39.1373 143.908 38.8599C144.441 38.5825 145.035 38.4439 145.689 38.4439C146.205 38.4439 146.683 38.5392 147.122 38.7299C147.569 38.9206 147.935 39.2023 148.219 39.575V38.5089H149.394ZM145.831 44.0216C146.278 44.0216 146.679 43.9262 147.031 43.7355C147.393 43.5448 147.672 43.2805 147.87 42.9424C148.077 42.5957 148.18 42.2057 148.18 41.7723C148.18 41.1049 147.961 40.5675 147.522 40.1601C147.083 39.744 146.519 39.536 145.831 39.536C145.134 39.536 144.566 39.744 144.127 40.1601C143.688 40.5675 143.469 41.1049 143.469 41.7723C143.469 42.2057 143.568 42.5957 143.766 42.9424C143.972 43.2805 144.252 43.5448 144.605 43.7355C144.966 43.9262 145.375 44.0216 145.831 44.0216Z" fill="black"/>
<path d="M154.846 44.3856C155.664 44.3856 156.322 44.1082 156.821 43.5535L157.493 44.3596C157.191 44.7236 156.808 45.001 156.344 45.1917C155.888 45.3824 155.376 45.4777 154.808 45.4777C154.085 45.4777 153.444 45.3304 152.884 45.0357C152.325 44.7323 151.89 44.3119 151.581 43.7745C151.279 43.2371 151.129 42.6304 151.129 41.9543C151.129 41.2869 151.275 40.6845 151.568 40.1471C151.869 39.6097 152.278 39.1936 152.794 38.8989C153.319 38.5955 153.908 38.4439 154.562 38.4439C155.182 38.4439 155.746 38.5869 156.253 38.8729C156.761 39.1503 157.166 39.5447 157.467 40.0561C157.768 40.5675 157.923 41.1569 157.932 41.8243L152.497 42.8904C152.669 43.3671 152.958 43.7355 153.362 43.9955C153.775 44.2556 154.27 44.3856 154.846 44.3856ZM154.562 39.497C154.132 39.497 153.745 39.5967 153.401 39.796C153.065 39.9954 152.803 40.2771 152.613 40.6411C152.424 40.9965 152.329 41.4126 152.329 41.8893V42.0193L156.705 41.1872C156.593 40.6845 156.344 40.2771 155.957 39.965C155.569 39.653 155.105 39.497 154.562 39.497Z" fill="black"/>
<path d="M163.318 38.4439C164.187 38.4439 164.876 38.6996 165.384 39.211C165.9 39.7137 166.158 40.4548 166.158 41.4342V45.3997H164.919V41.5772C164.919 40.9098 164.76 40.4071 164.441 40.0691C164.123 39.731 163.667 39.562 163.073 39.562C162.402 39.562 161.872 39.7614 161.485 40.1601C161.098 40.5501 160.904 41.1135 160.904 41.8503V45.3997H159.665V38.5089H160.853V39.549C161.102 39.1936 161.438 38.9206 161.86 38.7299C162.29 38.5392 162.776 38.4439 163.318 38.4439Z" fill="black"/>
<path d="M171.471 45.4777C170.774 45.4777 170.15 45.326 169.599 45.0227C169.057 44.7193 168.631 44.3033 168.321 43.7745C168.012 43.2371 167.857 42.6304 167.857 41.9543C167.857 41.2782 168.012 40.6758 168.321 40.1471C168.631 39.6097 169.057 39.1936 169.599 38.8989C170.15 38.5955 170.774 38.4439 171.471 38.4439C172.091 38.4439 172.641 38.5695 173.123 38.8209C173.614 39.0723 173.992 39.4363 174.259 39.913L173.317 40.5241C173.102 40.1947 172.835 39.9477 172.517 39.783C172.198 39.6183 171.845 39.536 171.458 39.536C171.011 39.536 170.606 39.6357 170.245 39.835C169.892 40.0344 169.612 40.3204 169.406 40.6931C169.208 41.0572 169.109 41.4776 169.109 41.9543C169.109 42.4397 169.208 42.8687 169.406 43.2415C169.612 43.6055 169.892 43.8872 170.245 44.0866C170.606 44.2859 171.011 44.3856 171.458 44.3856C171.845 44.3856 172.198 44.3033 172.517 44.1386C172.835 43.9739 173.102 43.7268 173.317 43.3975L174.259 43.9955C173.992 44.4723 173.614 44.8407 173.123 45.1007C172.641 45.3521 172.091 45.4777 171.471 45.4777Z" fill="black"/>
<path d="M182.24 38.5089V44.4636C182.24 45.6684 181.961 46.5569 181.401 47.1289C180.842 47.7097 180.003 48 178.884 48C178.273 48 177.688 47.909 177.129 47.727C176.578 47.5537 176.126 47.3023 175.773 46.9729L176.38 46.0108C176.681 46.2882 177.043 46.5049 177.464 46.6609C177.895 46.8169 178.346 46.8949 178.82 46.8949C179.568 46.8949 180.119 46.7042 180.472 46.3228C180.825 45.9501 181.001 45.3737 181.001 44.5936V44.0866C180.752 44.4159 180.429 44.6716 180.033 44.8537C179.637 45.027 179.207 45.1137 178.742 45.1137C177.83 45.1137 177.111 44.8623 176.586 44.3596C176.062 43.8569 175.799 43.1114 175.799 42.1233V38.5089H177.038V41.9803C177.038 42.639 177.197 43.1418 177.516 43.4885C177.834 43.8265 178.29 43.9955 178.884 43.9955C179.538 43.9955 180.055 43.7962 180.433 43.3975C180.812 42.9988 181.001 42.4354 181.001 41.7073V38.5089H182.24Z" fill="black"/>
<path d="M79.8849 1.57351V27.7987H75.0393V16.5593H61.5463V27.7987H56.7007V1.57351H61.5463V12.4008H75.0393V1.57351H79.8849Z" fill="black"/>
<path d="M90.8646 10.7149C92.2065 8.61685 94.5672 7.56784 97.9466 7.56784V12.0261C97.549 11.9512 97.1887 11.9137 96.8657 11.9137C95.0517 11.9137 93.6353 12.4507 92.6165 13.5247C91.5977 14.5737 91.0883 16.0973 91.0883 18.0954V27.7987H86.4291V7.79263H90.8646V10.7149Z" fill="black"/>
<path d="M125.349 1.57351V27.7987H120.503V16.5593H107.01V27.7987H102.164V1.57351H107.01V12.4008H120.503V1.57351H125.349Z" fill="black"/>
<path d="M151.163 7.79263V27.7987H146.728V25.2511C145.982 26.1503 145.05 26.8496 143.932 27.3491C142.814 27.8237 141.609 28.061 140.317 28.061C137.658 28.061 135.558 27.3242 134.017 25.8505C132.502 24.352 131.744 22.1416 131.744 19.2193V7.79263H136.403V18.5824C136.403 20.3807 136.8 21.7294 137.596 22.6286C138.416 23.5028 139.571 23.9399 141.062 23.9399C142.727 23.9399 144.044 23.4278 145.013 22.4038C146.007 21.3548 146.504 19.8562 146.504 17.9081V7.79263H151.163Z" fill="black"/>
<path d="M168.297 7.56784C170.235 7.56784 171.962 7.99244 173.478 8.84163C175.018 9.69083 176.224 10.8897 177.093 12.4382C177.963 13.9868 178.398 15.7726 178.398 17.7957C178.398 19.8188 177.963 21.6171 177.093 23.1906C176.224 24.7391 175.018 25.938 173.478 26.7872C171.962 27.6364 170.235 28.061 168.297 28.061C166.93 28.061 165.675 27.8237 164.532 27.3491C163.414 26.8746 162.47 26.1627 161.699 25.2136V27.7987H157.264V0H161.923V10.2278C162.718 9.35365 163.65 8.69178 164.718 8.2422C165.812 7.79263 167.004 7.56784 168.297 7.56784ZM167.775 24.0522C169.489 24.0522 170.893 23.4778 171.987 22.3289C173.105 21.18 173.664 19.6689 173.664 17.7957C173.664 15.9224 173.105 14.4114 171.987 13.2625C170.893 12.1135 169.489 11.5391 167.775 11.5391C166.657 11.5391 165.65 11.8013 164.756 12.3258C163.861 12.8254 163.153 13.5497 162.631 14.4988C162.109 15.4479 161.848 16.5468 161.848 17.7957C161.848 19.0445 162.109 20.1434 162.631 21.0925C163.153 22.0416 163.861 22.7785 164.756 23.303C165.65 23.8025 166.657 24.0522 167.775 24.0522Z" fill="black"/>
<path d="M183.943 28.061C183.099 28.061 182.378 27.7737 181.782 27.1993C181.185 26.5998 180.887 25.8505 180.887 24.9514C180.887 24.0273 181.173 23.278 181.744 22.7035C182.341 22.1291 183.074 21.8418 183.943 21.8418C184.813 21.8418 185.534 22.1291 186.105 22.7035C186.702 23.278 187 24.0273 187 24.9514C187 25.8505 186.702 26.5998 186.105 27.1993C185.509 27.7737 184.788 28.061 183.943 28.061Z" fill="black"/>
<path d="M25.0332 4.33122C30.36 2.8964 36.0161 3.80229 40.5993 6.7776C40.8694 6.89632 41.1195 6.61257 40.922 6.38758C36.6811 1.63315 30.3139 -0.515814 24.1707 0.575288C22.8867 0.84005 22.2022 2.26774 22.8867 3.45145C23.3017 4.17213 24.1973 4.54256 25.0332 4.33063V4.33122ZM8.19024 12.7947C9.61254 7.44544 13.2274 2.98189 18.0866 0.482681C18.3237 0.303997 18.2049 -0.0527783 17.9087 0.00658532C11.6863 1.31615 6.65622 5.7791 4.52277 11.6638C4.10778 12.9134 4.99687 14.223 6.36005 14.223C7.18943 14.223 7.95378 13.6282 8.19083 12.7947H8.19024ZM4.52277 24.0358C6.65622 29.927 11.6869 34.3906 17.9093 35.693C18.1463 35.7524 18.3243 35.3956 18.0275 35.2169C13.2274 32.7242 9.61254 28.2607 8.19024 22.9049C7.95319 22.072 7.18943 21.4831 6.35946 21.4831C4.99628 21.4831 4.10778 22.7856 4.52218 24.0352L4.52277 24.0358ZM3.04135 17.8531C3.04135 16.4841 4.10778 15.4132 5.47097 15.4132C6.83415 15.4132 7.89408 16.4841 7.89408 17.8531C7.89408 19.222 6.83415 20.2929 5.47097 20.2929C4.10778 20.2929 3.04135 19.222 3.04135 17.8531ZM7.07711 31.6593C3.17259 27.7448 1.13136 22.376 1.40802 16.9009C1.36841 16.6035 1.00663 16.5304 0.907314 16.8148C-1.0748 22.8782 0.25528 29.4907 4.26562 34.2908C5.1346 35.2763 6.70824 35.157 7.39337 33.9667C7.80836 33.246 7.67653 32.2808 7.07711 31.6593ZM14.9394 40.4736C21.0826 41.5647 27.4433 39.4157 31.6836 34.6613C31.855 34.4826 31.6375 34.1519 31.3348 34.3176C26.7783 37.2466 21.1287 38.1524 15.7953 36.7176C14.9589 36.5063 14.0639 36.8761 13.6489 37.5968C12.9708 38.7805 13.6554 40.2088 14.9394 40.473V40.4736ZM8.86178 38.6683C7.68304 37.9874 7.29465 36.5193 7.9727 35.3356C8.65074 34.1519 10.1126 33.7619 11.2914 34.4428C12.4701 35.1302 12.8585 36.5918 12.1805 37.7755C11.4959 38.9592 10.0405 39.3557 8.86178 38.6683ZM22.7945 42.074C17.4677 43.5154 11.8116 42.6029 7.22845 39.6276C6.95829 39.5089 6.70824 39.7927 6.91218 40.0176C11.146 44.7721 17.5132 46.921 23.6564 45.8299C24.9404 45.5723 25.6249 44.144 24.9469 42.9603C24.5319 42.2331 23.6298 41.8627 22.7939 42.074H22.7945ZM34.3242 39.6472C38.3411 34.8465 39.6712 28.2411 37.689 22.1777C37.6234 21.9397 37.2215 21.9664 37.2149 22.3101C37.465 27.7324 35.4238 33.1077 31.5192 37.0156C30.9133 37.6437 30.7886 38.6089 31.203 39.3296C31.881 40.5133 33.4547 40.6321 34.3242 39.6472ZM29.7346 44.0247C28.5493 44.7121 27.0939 44.3221 26.4159 43.1319C25.7313 41.9482 26.1262 40.4872 27.305 39.8057C28.4837 39.1183 29.9385 39.5083 30.6237 40.6985C31.3017 41.8823 30.9133 43.3432 29.7346 44.0247ZM39.6381 33.6099C38.2158 38.9657 34.6009 43.4227 29.7417 45.9219C29.5046 46.1006 29.6229 46.4574 29.9196 46.398C36.142 45.0891 41.1792 40.6321 43.3061 34.7408C43.7211 33.4912 42.832 32.1817 41.4753 32.1817C40.646 32.1817 39.8751 32.7765 39.6381 33.6099ZM43.3055 22.3694C41.1786 16.4847 36.1414 12.0212 29.919 10.7122C29.682 10.6529 29.504 11.0096 29.8008 11.1883C34.6009 13.6875 38.2158 18.1445 39.6381 23.5003C39.8751 24.3332 40.6454 24.9286 41.4753 24.9286C42.832 24.9286 43.7205 23.6196 43.3061 22.3694H43.3055ZM44.7869 28.5581C44.7869 29.927 43.7205 30.9914 42.3573 30.9914C40.9941 30.9914 39.9342 29.927 39.9342 28.5581C39.9342 27.1892 41.0007 26.1183 42.3573 26.1183C43.714 26.1183 44.7869 27.1892 44.7869 28.5581ZM40.7506 14.7454C44.6551 18.6598 46.6963 24.0358 46.4197 29.5038C46.4593 29.8012 46.8282 29.8742 46.9204 29.5898C48.9025 23.5264 47.5724 16.9211 43.5621 12.1203C42.6931 11.1349 41.1195 11.2542 40.4343 12.4379C40.0258 13.1586 40.1512 14.1238 40.7506 14.7454ZM32.8954 5.93107C26.7457 4.83997 20.385 6.98893 16.1441 11.7434C15.9727 11.922 16.1967 12.2527 16.4929 12.0871C21.0495 9.16461 26.7055 8.25219 32.0324 9.69354C32.8688 9.90487 33.7638 9.52851 34.1788 8.80724C34.8634 7.62353 34.1788 6.19524 32.8948 5.93107H32.8954ZM18.0931 2.38054C19.2784 1.69963 20.7338 2.08965 21.4118 3.27336C22.0964 4.45707 21.7015 5.91801 20.5227 6.60604C19.344 7.28694 17.8892 6.89692 17.204 5.71321C16.526 4.5295 16.9144 3.06144 18.0931 2.38054ZM38.9665 7.73632C40.1453 8.42375 40.5401 9.88528 39.8556 11.069C39.1776 12.2527 37.7221 12.6492 36.5369 11.9618C35.3582 11.2809 34.9698 9.81286 35.6478 8.62915C36.3324 7.44544 37.7878 7.05542 38.9665 7.73632ZM13.5041 6.75801C9.48722 11.5587 8.15714 18.1707 10.1393 24.2341C10.212 24.4656 10.6068 24.4454 10.6133 24.0951C10.3633 18.6729 12.4045 13.304 16.3156 9.3896C16.915 8.76806 17.0397 7.80281 16.6253 7.08213C15.9473 5.89189 14.3736 5.77316 13.5041 6.75801Z" fill="#1268FB"/>
</svg>
